<?xml version="1.0" encoding="utf-8"?>
<!-- Generator: Adobe Illustrator 23.0.3, SVG Export Plug-In . SVG Version: 6.00 Build 0)  -->
<svg version="1.1" id="Capa_1" xmlns="http://www.w3.org/2000/svg" xmlns:xlink="http://www.w3.org/1999/xlink" x="0px" y="0px"
	 viewBox="0 0 1200 1200" enable-background="new 0 0 1200 1200" xml:space="preserve">
<g>
	<g>
		<path fill="#219736" d="M168.975,578.258c-2.834,3.924-4.36,11.987-4.36,23.972c0,11.988,0.653,20.485,1.963,25.064
			c0.151,0.445,0.319,0.847,0.482,1.259c-4.267-1.367-7.494-4.254-9.562-10.339c-1.309-4.578-1.963-13.076-1.963-25.064
			c0-11.985,1.525-20.048,4.36-23.972c2.831-3.705,9.369-5.666,19.395-5.666c7.41,0,15.257,0.436,23.536,1.089
			c5.232,0,9.807-3.05,9.807-8.718l0.872-21.357c0-0.211-0.039-0.412-0.052-0.621c0.577,0.112,1.138,0.213,1.721,0.329
			c4.359,0.872,7.41,4.795,7.41,9.371l-0.872,21.357c0,5.667-4.575,8.718-9.807,8.718c-8.279-0.653-16.126-1.089-23.536-1.089
			C178.344,572.592,171.806,574.553,168.975,578.258z M206.532,668.338c-13.076,2.831-26.589,4.141-40.099,4.141
			c-15.426,0-30.144-1.759-41.153-9.477c11.013,15.524,30.012,18.557,50.232,18.557c13.511,0,27.024-1.309,40.099-4.141
			c4.141-0.872,7.191-4.578,6.973-8.938l-0.216-21.573c-0.211-5.055-4.096-8.851-9.078-8.906l0.214,21.4
			C213.723,663.76,210.673,667.466,206.532,668.338z M357.909,542.332c9.632,12.716,13.583,30.927,13.583,54.306
			c0,49.034-17.87,75.841-69.301,75.841c-20.603,0-35.879-4.313-46.803-12.635c10.872,14.258,28.771,21.715,55.883,21.715
			c51.431,0,69.3-26.808,69.3-75.841C380.571,576.031,374.202,554.674,357.909,542.332z M296.232,578.911
			c2.397-5.447,7.41-8.063,15.038-8.063c2.462,0,4.621,0.302,6.531,0.848c-0.247-0.739-0.508-1.439-0.791-2.082
			c-2.182-5.23-7.194-7.846-14.82-7.846c-7.629,0-12.641,2.616-15.038,8.063c-2.397,5.449-3.703,14.384-3.703,26.806
			c0,12.423,1.306,21.139,3.703,26.589c1.611,3.662,4.434,6.112,8.41,7.344c-1.964-5.497-3.034-13.657-3.034-24.853
			C292.529,593.295,293.835,584.36,296.232,578.911z M493.955,668.338c-13.075,2.831-26.589,4.141-40.099,4.141
			c-15.426,0-30.144-1.759-41.153-9.477c11.013,15.524,30.012,18.557,50.232,18.557c13.51,0,27.023-1.309,40.099-4.141
			c4.141-0.872,7.191-4.578,6.973-8.938l-0.216-21.573c-0.211-5.055-4.096-8.851-9.078-8.906l0.214,21.4
			C501.146,663.76,498.096,667.466,493.955,668.338z M475.792,572.592c7.41,0,15.257,0.436,23.536,1.089
			c5.232,0,9.807-3.05,9.807-8.718l0.872-21.357c0-4.575-3.05-8.499-7.41-9.371c-0.583-0.116-1.145-0.217-1.721-0.329
			c0.013,0.208,0.052,0.409,0.052,0.621l-0.872,21.357c0,5.667-4.575,8.718-9.807,8.718c-8.279-0.653-16.126-1.089-23.536-1.089
			c-10.026,0-16.563,1.961-19.395,5.666c-2.835,3.924-4.36,11.987-4.36,23.972c0,11.988,0.654,20.485,1.963,25.064
			c2.069,6.085,5.295,8.972,9.562,10.339c-0.164-0.412-0.331-0.814-0.482-1.259c-1.309-4.578-1.963-13.076-1.963-25.064
			c0-11.985,1.525-20.048,4.36-23.972C459.229,574.553,465.767,572.592,475.792,572.592z M635.742,604.845
			c-0.219-0.872-0.219-2.178,0-3.05l20.701-62.547c1.091-3.269-1.306-6.538-4.794-6.538h-5.127l-19.86,60.005
			c-0.218,0.872-0.218,2.178,0,3.05l22.883,67.122c1.088,3.269-1.31,6.757-4.794,6.757h-38.11l2.078,5.811
			c0.872,1.962,2.613,3.269,4.794,3.269h40.318c3.484,0,5.882-3.488,4.794-6.757L635.742,604.845z M579.369,575.28
			c1.632,0,3.138-0.854,4.067-2.105v-35.452c0-2.833-2.178-5.013-5.01-5.013h-4.07v37.557
			C574.357,573.102,576.538,575.28,579.369,575.28z M579.807,621.045h-0.438c-2.831,0-5.013,2.181-5.013,5.013v38.574
			c0,2.835-2.178,5.013-5.01,5.013h-36.47v4.067c0,2.834,2.178,5.013,5.013,5.013h40.536c2.832,0,5.01-2.178,5.01-5.013v-38.574
			c0-2.24,1.375-4.053,3.346-4.721l-2.182-6.102C583.729,622.355,581.986,621.045,579.807,621.045z M684.835,564.82h-9.37
			c-0.438,0-0.853-0.074-1.276-0.124c0.528,5.169,4.841,9.203,10.355,9.203h9.37c0.356,0,0.693,0.069,1.04,0.105
			C694.342,568.756,690.081,564.82,684.835,564.82z M773.847,532.815c0.049,0.423,0.124,0.837,0.124,1.276v20.485
			c0,5.667-4.578,10.244-10.244,10.244h-7.844c-5.666,0-10.244,4.575-10.244,10.46v84.12c0,5.669-4.575,10.244-10.241,10.244
			h-30.077c-0.362,0-0.704-0.07-1.055-0.106c0.535,5.162,4.832,9.186,10.135,9.186h30.076c5.666,0,10.241-4.575,10.241-10.244
			v-84.12c0-5.885,4.578-10.46,10.244-10.46h7.844c5.665,0,10.244-4.577,10.244-10.244V543.17
			C783.051,537.658,779.016,533.343,773.847,532.815z M867.452,652.863h-18.526c-4.575,0-8.282,3.053-9.154,7.41l-0.435,1.963
			c-0.872,4.36-4.578,7.41-8.935,7.41h-30.73c-0.027,0-0.052-0.009-0.079-0.009c-0.004,4.872,3.981,9.089,9.159,9.089h30.73
			c4.356,0,8.063-3.05,8.935-7.41l0.434-1.963c0.872-4.357,4.579-7.41,9.154-7.41h18.526c0.117,0,0.23,0.025,0.347,0.029
			l-0.492-2.134C875.296,655.697,871.592,652.863,867.452,652.863z M864.074,579.292l-2.507-15.998h-5.45l-6.538,40.316
			c-0.864,5.62,3.417,10.578,9.012,10.663c-0.008-0.522-0.015-1.046,0.068-1.583L864.074,579.292z M907.695,539.901
			c-1.047-3.977-4.515-6.918-8.647-7.147l28.116,125.558c1.306,5.885-3.05,11.332-8.935,11.332h-32.255
			c-0.118,0-0.231-0.025-0.348-0.03l0.492,2.137c1.091,4.138,4.794,6.972,8.935,6.972h32.254c5.885,0,10.242-5.447,8.935-11.332
			L907.695,539.901z M1007.711,670.008V541.209c0-4.577-3.922-8.499-8.498-8.499h-0.582v128.218c0,4.794-3.922,8.716-8.497,8.716
			h-32.982v0.363c0,4.794,3.922,8.716,8.5,8.716h33.561C1003.789,678.724,1007.711,674.802,1007.711,670.008z M1075.333,619.302
			c0,4.99,4.104,9.109,9.086,9.147c0-0.023-0.006-0.044-0.006-0.067v-86.517c0-4.991-4.106-9.111-9.087-9.147
			c0,0.023,0.007,0.044,0.007,0.067V619.302z M1033.927,669.645c-0.023,0-0.044-0.007-0.067-0.007
			c0.027,3.528,2.116,6.584,5.098,8.086l2.308-8.079H1033.927z M1122.838,637.541c0,0.023,0.007,0.044,0.007,0.067v22.883
			c0,5.013-4.141,9.154-9.154,9.154h-57.347l2.323,9.08h64.104c5.013,0,9.154-4.141,9.154-9.154v-22.882
			C1131.924,641.698,1127.82,637.579,1122.838,637.541z"/>
	</g>
	<g>
		<path fill="#FF7FAF" d="M167.06,628.553c3.372,1.08,7.393,1.212,12.011,1.212l24.626-0.872c5.232-0.219,9.373,3.703,9.591,8.935
			l0.002,0.174l0.214,21.4c0.218,4.36-2.832,8.066-6.973,8.938c-13.076,2.831-26.589,4.141-40.099,4.141
			c-15.426,0-30.144-1.759-41.153-9.477c-6.41-4.494-11.569-10.997-14.857-20.38c-3.922-10.679-5.885-26.151-5.885-46.418
			c0-2.829,0.057-5.544,0.144-8.198l19.181-4.907c1.806-0.462,1.845-3.012,0.055-3.53l-18.32-5.3
			c1.821-17.3,5.991-29.839,12.453-37.562c8.935-10.679,25.933-15.909,50.997-15.909c10.46,0,22.882,1.525,37.046,4.358
			c4.158,0.832,7.093,4.448,7.358,8.75c0.013,0.208,0.052,0.409,0.052,0.621l-0.872,21.357c0,5.667-4.575,8.718-9.807,8.718
			c-8.279-0.653-16.126-1.089-23.536-1.089c-10.026,0-16.563,1.961-19.395,5.666c-2.835,3.924-4.36,11.987-4.36,23.972
			c0,11.988,0.654,20.485,1.963,25.064C159.567,624.299,162.793,627.186,167.06,628.553z M302.191,672.479
			c-20.603,0-35.879-4.313-46.803-12.635c-16.347-12.454-22.935-33.902-22.935-63.425c0-35.574,9.331-59.203,33.972-69.587
			l5.788,22.669c0.613,2.403,4.009,2.451,4.69,0.066l7.892-27.623c5.26-0.756,10.968-1.147,17.177-1.147
			c27.356,0,45.186,7.343,55.937,21.534c9.632,12.716,13.583,30.927,13.583,54.306C371.492,645.672,353.622,672.479,302.191,672.479
			z M295.563,630.57c1.938,0.601,4.128,0.935,6.628,0.935c7.41,0,12.423-2.613,14.82-8.063c2.397-5.447,3.484-14.382,3.484-27.023
			c0-10.957-0.849-19.192-2.694-24.723c-0.247-0.739-0.508-1.439-0.791-2.082c-2.182-5.23-7.194-7.846-14.82-7.846
			c-7.629,0-12.641,2.616-15.038,8.063c-2.397,5.449-3.703,14.384-3.703,26.806c0,12.423,1.306,21.139,3.703,26.589
			C288.764,626.889,291.587,629.338,295.563,630.57z M444.921,618.214c-1.309-4.578-1.963-13.076-1.963-25.064
			c0-11.985,1.525-20.048,4.36-23.972c2.831-3.705,9.369-5.666,19.395-5.666c7.41,0,15.257,0.436,23.536,1.089
			c5.232,0,9.807-3.05,9.807-8.718l0.872-21.357c0-0.211-0.039-0.412-0.052-0.621c-0.265-4.302-3.2-7.919-7.358-8.75
			c-14.163-2.833-26.586-4.358-37.046-4.358c-25.064,0-42.062,5.23-50.996,15.909c-8.935,10.679-13.513,30.511-13.513,59.497
			c0,20.267,1.962,35.74,5.885,46.418c3.288,9.383,8.447,15.886,14.856,20.38c11.008,7.718,25.727,9.477,41.153,9.477
			c13.51,0,27.024-1.309,40.099-4.141c4.141-0.872,7.191-4.578,6.973-8.938l-0.214-21.4l-0.002-0.174
			c-0.219-5.231-4.36-9.154-9.591-8.935l-24.626,0.872c-4.618,0-8.639-0.132-12.011-1.212
			C450.216,627.186,446.99,624.299,444.921,618.214z M649.545,662.888l-22.883-67.122c-0.218-0.872-0.218-2.178,0-3.05l19.86-60.005
			l0.841-2.542c1.091-3.269-1.306-6.538-4.794-6.538h-39.446c-2.178,0-4.141,1.525-4.794,3.486l-14.166,44.677
			c-0.165,0.494-0.414,0.96-0.727,1.381c-0.929,1.251-2.435,2.105-4.067,2.105c-2.831,0-5.013-2.178-5.013-5.013V532.71v-4.067
			c0-2.833-2.178-5.013-5.01-5.013h-40.536c-2.834,0-5.013,2.18-5.013,5.013v135.988c0,2.835,2.179,5.013,5.013,5.013h4.067h36.47
			c2.832,0,5.01-2.178,5.01-5.013v-38.574c0-2.831,2.181-5.013,5.013-5.013h0.438c2.178,0,3.922,1.309,4.794,3.269l2.182,6.102
			l12.856,35.959c0.872,1.963,2.613,3.269,4.794,3.269h2.208h38.11C648.236,669.645,650.633,666.157,649.545,662.888z
			 M735.397,669.645c5.666,0,10.241-4.575,10.241-10.244v-84.12c0-5.885,4.578-10.46,10.244-10.46h7.844
			c5.666,0,10.244-4.577,10.244-10.244v-20.485c0-0.439-0.075-0.853-0.124-1.276c-0.614-5.247-4.877-9.184-10.12-9.184h-88.261
			c-5.885,0-10.46,4.577-10.46,10.46v20.485c0,5.245,3.936,9.507,9.184,10.12c0.423,0.049,0.837,0.124,1.276,0.124h9.37
			c5.246,0,9.507,3.936,10.12,9.184c0.049,0.423,0.124,0.837,0.124,1.276v84.12c0,5.307,4.025,9.605,9.186,10.138
			c0.351,0.036,0.694,0.106,1.055,0.106H735.397z M885.975,669.645c-0.118,0-0.231-0.025-0.348-0.03
			c-3.997-0.155-7.527-2.923-8.587-6.943l-0.161-0.701l-0.492-2.134c-1.091-4.141-4.794-6.975-8.935-6.975h-18.526
			c-4.575,0-8.282,3.053-9.154,7.41l-0.435,1.963c-0.872,4.36-4.578,7.41-8.935,7.41h-30.73c-0.027,0-0.052-0.009-0.079-0.009
			c-5.844-0.05-10.156-5.464-8.856-11.104l28.114-127.71c0.872-4.141,4.575-7.191,8.935-7.191h61.675
			c4.357,0,8.063,3.05,9.154,7.191l0.433,1.933l28.116,125.558c1.306,5.885-3.05,11.332-8.935,11.332H885.975z M867.886,603.61
			l-3.812-24.318l-2.507-15.998h-5.45l-6.538,40.316c-0.864,5.62,3.417,10.578,9.012,10.663c0.049,0.001,0.093,0.016,0.142,0.016
			C864.399,614.289,868.758,609.279,867.886,603.61z M998.631,660.929V532.71v-0.581c0-4.577-3.922-8.499-8.497-8.499h-33.561
			c-4.578,0-8.5,3.922-8.5,8.499v128.799c0,4.794,3.922,8.716,8.5,8.716h0.58h32.982
			C994.709,669.645,998.631,665.723,998.631,660.929z M1041.267,669.645l5.489-19.212c0.681-2.384,4.076-2.336,4.69,0.065
			l4.898,19.147h57.347c5.013,0,9.154-4.141,9.154-9.154v-22.883c0-0.023-0.007-0.044-0.007-0.067
			c-0.038-4.982-4.157-9.086-9.147-9.086h-29.204c-0.023,0-0.044-0.007-0.067-0.007c-4.982-0.038-9.086-4.157-9.086-9.147v-86.517
			c0-0.023-0.007-0.044-0.007-0.067c-0.038-4.982-4.157-9.086-9.144-9.086h-32.255c-5.013,0-9.153,4.141-9.153,9.154v127.707
			c0,4.99,4.105,9.109,9.087,9.147c0.023,0,0.044,0.007,0.067,0.007H1041.267z"/>
	</g>
	<g>
		<path fill="#FBC310" d="M1056.344,669.645l2.323,9.08l1.643,6.422c0.213,0.834,0.852,1.493,1.678,1.732l34.81,10.071
			c2.377,0.688,2.324,4.075-0.073,4.688l-34.7,8.876c-0.837,0.214-1.497,0.856-1.734,1.686l-9.917,34.711
			c-0.681,2.384-4.077,2.336-4.691-0.066l-8.884-34.8c-0.214-0.837-0.856-1.498-1.687-1.735l-34.718-9.919
			c-2.384-0.681-2.337-4.076,0.065-4.69l34.643-8.862c0.837-0.214,1.497-0.856,1.734-1.686l2.122-7.427l2.308-8.079l5.489-19.212
			c0.681-2.384,4.076-2.336,4.69,0.065L1056.344,669.645z M276.903,549.568l7.892-27.623l2.025-7.088
			c0.237-0.83,0.897-1.472,1.734-1.686l34.7-8.876c2.398-0.613,2.451-4,0.073-4.688l-34.81-10.071
			c-0.827-0.239-1.466-0.898-1.679-1.732l-8.863-34.648c-0.614-2.402-4.009-2.449-4.69-0.065l-9.92,34.719
			c-0.237,0.83-0.897,1.472-1.734,1.686l-34.644,8.862c-2.401,0.614-2.449,4.009-0.065,4.69l34.718,9.919
			c0.831,0.237,1.473,0.898,1.687,1.735l3.097,12.13l5.788,22.669C272.826,551.904,276.222,551.952,276.903,549.568z
			 M1148.897,522.548l-21.891-6.333c-0.52-0.15-0.921-0.565-1.055-1.089l-5.573-21.79c-0.386-1.51-2.521-1.54-2.95-0.041
			l-6.238,21.834c-0.149,0.522-0.564,0.926-1.091,1.061l-21.786,5.573c-1.511,0.386-1.54,2.521-0.041,2.949l21.833,6.238
			c0.522,0.149,0.926,0.565,1.06,1.091l5.588,21.885c0.385,1.511,2.521,1.541,2.949,0.042l6.237-21.829
			c0.15-0.522,0.565-0.926,1.091-1.061l21.822-5.582C1150.359,525.11,1150.392,522.98,1148.897,522.548z M963.696,500.032
			l-26.212-7.583c-0.623-0.18-1.103-0.676-1.264-1.304l-6.674-26.09c-0.463-1.809-3.019-1.844-3.532-0.049l-7.469,26.143
			c-0.179,0.625-0.676,1.109-1.306,1.27l-26.086,6.673c-1.808,0.463-1.844,3.019-0.049,3.532l26.142,7.469
			c0.625,0.179,1.109,0.676,1.27,1.307l6.69,26.204c0.462,1.809,3.019,1.845,3.532,0.05l7.468-26.137
			c0.179-0.625,0.676-1.109,1.306-1.27l26.129-6.684C965.446,503.1,965.486,500.55,963.696,500.032z M123.919,579.569l-18.32-5.3
			l-7.892-2.283c-0.623-0.18-1.104-0.676-1.264-1.304l-6.674-26.09c-0.462-1.809-3.018-1.844-3.532-0.049l-7.469,26.143
			c-0.179,0.625-0.676,1.109-1.306,1.27l-26.086,6.673c-1.809,0.463-1.844,3.019-0.049,3.532l26.143,7.469
			c0.626,0.179,1.109,0.676,1.27,1.307l6.69,26.204c0.462,1.809,3.019,1.845,3.532,0.05l7.468-26.137
			c0.179-0.625,0.676-1.109,1.306-1.27l6.947-1.777l19.181-4.907C125.67,582.637,125.709,580.087,123.919,579.569z"/>
	</g>
</g>
</svg>
